<svg xmlns="http://www.w3.org/2000/svg" viewBox="0 0 512 512" width="100%" height="100%">
  <defs>
    <linearGradient id="bg" x1="0%" y1="0%" x2="100%" y2="100%">
      <stop offset="0%" stop-color="#BE185D"/>
      <stop offset="50%" stop-color="#E11D48"/>
      <stop offset="100%" stop-color="#9D174D"/>
    </linearGradient>
    <linearGradient id="gold" x1="0%" y1="0%" x2="100%" y2="100%">
      <stop offset="0%" stop-color="#FDE047"/>
      <stop offset="100%" stop-color="#F59E0B"/>
    </linearGradient>
  </defs>
  <rect width="512" height="512" rx="128" fill="url(#bg)"/>
  <g transform="translate(256 256) scale(0.85)">
    <path d="M0 -160 C 80 -160, 160 -80, 160 0 C 160 80, 80 160, 0 160 C -80 160, -160 80, -160 0 C -160 -80, -80 -160, 0 -160 Z" fill="none" stroke="#FFFFFF" stroke-width="16" opacity="0.3"/>
    <path d="M0 -140 C 70 -100, 140 -30, 100 40 C 60 110, -60 110, -100 40 C -140 -30, -70 -100, 0 -140 Z" fill="#FFF1F2" opacity="0.95"/>
    <path d="M0 -110 C 50 -80, 110 -20, 80 30 C 50 80, -50 80, -80 30 C -110 -20, -50 -80, 0 -110 Z" fill="#FFE4E6"/>
    <path d="M0 -80 C 40 -50, 80 -10, 60 20 C 40 50, -40 50, -60 20 C -80 -10, -40 -50, 0 -80 Z" fill="#FECDD3"/>
    <path d="M0 -50 C 25 -30, 50 0, 35 15 C 20 30, -20 30, -35 15 C -50 0, -25 -30, 0 -50 Z" fill="url(#gold)"/>
    <circle cx="0" cy="0" r="18" fill="#FFFFFF"/>
  </g>
</svg>